<svg xmlns="http://www.w3.org/2000/svg" width="593.628" height="206.532" viewBox="0 0 593.628 206.532">
  <g id="arcoiris" transform="translate(-1153 -16)">
    <path id="Caminho_670" data-name="Caminho 670" d="M628.033,164.314h-250.1c-73.422,0-129.373,16.732-163.506,52a151.312,151.312,0,0,0-15.308,18.612h51.423c27.667-22.709,70.435-34.213,127.391-34.213h250.1Z" transform="translate(1118.594 -12.392)" fill="#fb877c"/>
    <path id="Caminho_671" data-name="Caminho 671" d="M189.816,227.84c43.5-62.792,136.24-68.956,169.55-68.956H618.75v-35.57H359.367c-62.529,0-122.014,12.108-161.686,40.6C174.6,180.486,157.4,203.446,145.4,227.84Z" transform="translate(1127.876 -5.307)" fill="#fca749"/>
    <path id="Caminho_672" data-name="Caminho 672" d="M136.706,220.447C173.576,143.987,268.422,116.1,345.4,116.1H609.993V80.53H345.4c-62.961,0-128.17,13.725-172.855,43.829-35.954,24.221-63.249,57.652-77.831,96.088Z" transform="translate(1136.635 2.085)" fill="#ffda73"/>
    <path id="Caminho_673" data-name="Caminho 673" d="M601.394,38.918H336.661c-64.782.324-136.189,15.29-185.521,44.9C99.439,114.844,62.265,158.6,44.946,213.257h41C125.005,111.107,245.109,74.956,336.8,74.488h264.59Z" transform="translate(1145.234 9.275)" fill="#b9d65f"/>
    <path id="Caminho_674" data-name="Caminho 674" d="M593.627,0H315.149C252.391,0,185.412,14.031,131.385,47.149,68.052,85.973,16.218,141.018,0,206.532H37.708C71.443,92.7,208.5,33.916,315.149,33.916H593.627Z" transform="translate(1153 16)" fill="#39b2c5"/>
    <rect id="Retângulo_938" data-name="Retângulo 938" width="593.628" height="206.532" transform="translate(1153 16)" fill="none"/>
  </g>
</svg>
