<svg id="carinha" xmlns="http://www.w3.org/2000/svg" xmlns:xlink="http://www.w3.org/1999/xlink" width="59.001" height="59.001" viewBox="0 0 59.001 59.001">
  <defs>
    <clipPath id="clip-path">
      <rect id="Retângulo_946" data-name="Retângulo 946" width="59.001" height="59.001" fill="none"/>
    </clipPath>
  </defs>
  <g id="Grupo_1582" data-name="Grupo 1582" clip-path="url(#clip-path)">
    <path id="Caminho_675" data-name="Caminho 675" d="M33.5,61.961A28.465,28.465,0,1,1,61.961,33.5,28.5,28.5,0,0,1,33.5,61.961" transform="translate(-3.995 -3.995)" fill="#ffeb98"/>
    <path id="Caminho_676" data-name="Caminho 676" d="M29.5,2.071A27.429,27.429,0,1,1,2.071,29.5,27.429,27.429,0,0,1,29.5,2.071M29.5,0A29.5,29.5,0,1,0,59,29.5,29.534,29.534,0,0,0,29.5,0" fill="#ef593c"/>
    <path id="Caminho_677" data-name="Caminho 677" d="M108.932,72.525c0,2.792-1.621,5.056-3.62,5.056s-3.62-2.264-3.62-5.056,1.621-5.056,3.62-5.056,3.62,2.264,3.62,5.056" transform="translate(-83.081 -51.581)" fill="#ef593c"/>
    <path id="Caminho_678" data-name="Caminho 678" d="M167.861,72.525c0,2.792-1.621,5.056-3.62,5.056s-3.62-2.264-3.62-5.056,1.621-5.056,3.62-5.056,3.62,2.264,3.62,5.056" transform="translate(-127.473 -51.581)" fill="#ef593c"/>
    <path id="Caminho_679" data-name="Caminho 679" d="M76.575,163.127A17.376,17.376,0,0,1,59.289,147.71l2.058-.233a15.329,15.329,0,0,0,30.477-.18l2.06.209a17.339,17.339,0,0,1-17.309,15.621" transform="translate(-47.085 -116.978)" fill="#ef593c"/>
    <path id="Caminho_680" data-name="Caminho 680" d="M53.339,144.8a1.035,1.035,0,0,1-.679-1.818,3.818,3.818,0,0,1,1.825-.875,3.865,3.865,0,0,1,2.263.291,1.036,1.036,0,0,1-.863,1.883,1.767,1.767,0,0,0-1.035-.135,1.749,1.749,0,0,0-.834.4,1.031,1.031,0,0,1-.678.253" transform="translate(-41.537 -112.813)" fill="#ef593c"/>
    <path id="Caminho_681" data-name="Caminho 681" d="M213.818,144.8a1.031,1.031,0,0,1-.678-.253,1.727,1.727,0,0,0-1.867-.267,1.036,1.036,0,1,1-.866-1.882,3.8,3.8,0,0,1,4.089.584,1.035,1.035,0,0,1-.679,1.818" transform="translate(-166.619 -112.813)" fill="#ef593c"/>
  </g>
</svg>
