<svg id="ISTS_E_AIDS" data-name="ISTS E AIDS" xmlns="http://www.w3.org/2000/svg" width="152" height="162.258" viewBox="0 0 152 162.258">
  <rect id="GUIA_FORMATO" data-name="GUIA FORMATO" width="152" height="162.258" fill="none"/>
  <path id="Caminho_1" data-name="Caminho 1" d="M156.405,133.272a4.6,4.6,0,0,0-4.025,2.383l-.033,0h-4.323A12.374,12.374,0,0,0,146,130.775l3.084-3.084a4.593,4.593,0,1,0-3.127-3.127l-3.084,3.084a12.375,12.375,0,0,0-4.878-2.025v-4.356a4.593,4.593,0,1,0-4.423,0v4.356a12.375,12.375,0,0,0-4.878,2.025l-3-3c-.029-.029-.059-.053-.088-.08a4.587,4.587,0,1,0-3.119,3.119c.027.029.052.06.08.089l3,3a12.376,12.376,0,0,0-2.025,4.878h-4.357a4.593,4.593,0,1,0,0,4.423h4.357a12.376,12.376,0,0,0,2.025,4.878l-3.084,3.084a4.583,4.583,0,1,0,3.129,3.126l3.082-3.082a12.375,12.375,0,0,0,4.878,2.025v4.357a4.593,4.593,0,1,0,4.423,0v-4.357a12.375,12.375,0,0,0,4.878-2.025l2.924,2.924c.051.051.105.1.161.145a4.613,4.613,0,0,0-.185,1.3,4.593,4.593,0,1,0,3.3-4.406c-.046-.056-.095-.11-.147-.163L146,144.954a12.375,12.375,0,0,0,2.025-4.878h4.323l.033,0a4.592,4.592,0,1,0,4.025-6.8" transform="translate(-58.136 -54.584)" fill="#1d676d"/>
  <path id="Caminho_2" data-name="Caminho 2" d="M334.26,26.155a2.982,2.982,0,0,0,.405,3.007l-.009.019-1.094,2.581a8.027,8.027,0,0,0-3.425-.024l-1.061-2.622a2.979,2.979,0,1,0-2.659,1.076l1.062,2.622a8.025,8.025,0,0,0-2.443,2.4l-2.6-1.1a2.979,2.979,0,1,0-1.118,2.641l2.6,1.1a8.022,8.022,0,0,0-.024,3.425l-2.548,1.032c-.024.01-.047.022-.07.033A2.974,2.974,0,1,0,322.347,45c.024-.009.049-.016.073-.025l2.548-1.032a8.024,8.024,0,0,0,2.4,2.443l-1.1,2.6a2.979,2.979,0,1,0,2.641,1.119l1.1-2.6a8.027,8.027,0,0,0,3.425.025l1.062,2.622a2.978,2.978,0,1,0,3.47-.862,3.017,3.017,0,0,0-.813-.216l-1.061-2.619a8.023,8.023,0,0,0,2.443-2.4l2.6,1.1a2.979,2.979,0,1,0,1.119-2.641l-2.6-1.1a8.027,8.027,0,0,0,.025-3.425l2.486-1.007c.044-.018.086-.038.127-.06a2.98,2.98,0,0,0,4.65-3.422,2.978,2.978,0,0,0-5.719.776c-.045.013-.09.029-.134.047L338.6,35.325a8.024,8.024,0,0,0-2.4-2.443L337.3,30.3c0-.007,0-.013.007-.02a2.978,2.978,0,1,0-3.044-4.125" transform="translate(-207.575 14.821)" fill="#1d676d"/>
  <path id="Caminho_3" data-name="Caminho 3" d="M11.3,113.851a1.888,1.888,0,0,0,.257,1.9l-.006.012-.692,1.635a5.087,5.087,0,0,0-2.17-.016l-.672-1.66a1.887,1.887,0,1,0-1.684.682l.672,1.66a5.082,5.082,0,0,0-1.548,1.521l-1.647-.7a1.887,1.887,0,1,0-.709,1.673l1.648.7a5.087,5.087,0,0,0-.016,2.17l-1.613.654c-.015.006-.03.013-.045.021a1.883,1.883,0,1,0,.68,1.679l.046-.016,1.614-.653a5.08,5.08,0,0,0,1.52,1.547l-.7,1.648a1.886,1.886,0,1,0,1.673.708l.7-1.648a5.086,5.086,0,0,0,2.169.016l.672,1.66a1.882,1.882,0,1,0,1.683-.683l-.672-1.659a5.084,5.084,0,0,0,1.547-1.521l1.648.7a1.886,1.886,0,1,0,.708-1.673l-1.648-.7a5.082,5.082,0,0,0,.016-2.17l1.575-.638c.028-.011.055-.024.081-.038a1.888,1.888,0,1,0-.677-1.676c-.029.008-.057.018-.085.029l-1.574.638a5.084,5.084,0,0,0-1.521-1.547l.692-1.635,0-.013a1.886,1.886,0,1,0-1.928-2.612" transform="translate(26.984 -61.275)" fill="#1d676d"/>
  <path id="Caminho_4" data-name="Caminho 4" d="M283.988,260.515a1.91,1.91,0,0,0,.259,1.926l-.006.012-.7,1.654a5.139,5.139,0,0,0-2.194-.016l-.68-1.68a1.908,1.908,0,1,0-1.7.69l.68,1.68a5.14,5.14,0,0,0-1.565,1.538l-1.667-.706a1.908,1.908,0,1,0-.717,1.692l1.667.706a5.139,5.139,0,0,0-.016,2.194l-1.632.661-.045.021a1.905,1.905,0,1,0,.688,1.7l.047-.016,1.632-.661a5.141,5.141,0,0,0,1.538,1.565l-.706,1.667a1.908,1.908,0,1,0,1.692.717l.706-1.667a5.142,5.142,0,0,0,2.194.016l.68,1.68a1.9,1.9,0,1,0,1.7-.691l-.68-1.678a5.141,5.141,0,0,0,1.565-1.538l1.667.706a1.908,1.908,0,1,0,.717-1.692l-1.667-.706a5.142,5.142,0,0,0,.016-2.194l1.593-.645q.042-.017.082-.038a1.909,1.909,0,1,0-.685-1.7c-.029.009-.058.019-.086.03l-1.593.645a5.142,5.142,0,0,0-1.538-1.565l.7-1.654,0-.013a1.908,1.908,0,1,0-1.95-2.642" transform="translate(-183.419 -151.008)" fill="#3aa"/>
  <path id="Caminho_5" data-name="Caminho 5" d="M117.2,327.141a1.91,1.91,0,0,0,.259,1.926l-.006.012-.7,1.654a5.138,5.138,0,0,0-2.194-.016l-.68-1.679a1.908,1.908,0,1,0-1.7.69l.68,1.679a5.143,5.143,0,0,0-1.565,1.538l-1.667-.706a1.908,1.908,0,1,0-.717,1.692l1.667.706a5.142,5.142,0,0,0-.016,2.194l-1.632.661c-.016.006-.03.014-.045.021a1.9,1.9,0,1,0,.688,1.7c.016-.005.031-.01.047-.016l1.632-.661a5.136,5.136,0,0,0,1.538,1.565l-.706,1.667a1.908,1.908,0,1,0,1.692.717l.706-1.667a5.142,5.142,0,0,0,2.194.016l.68,1.679a1.9,1.9,0,1,0,1.7-.691l-.68-1.678a5.139,5.139,0,0,0,1.565-1.538l1.667.706a1.908,1.908,0,1,0,.717-1.692l-1.667-.706a5.141,5.141,0,0,0,.016-2.194l1.593-.645a.845.845,0,0,0,.082-.038,1.909,1.909,0,1,0-.685-1.695.885.885,0,0,0-.086.03l-1.593.645a5.135,5.135,0,0,0-1.538-1.565l.7-1.654,0-.013a1.908,1.908,0,1,0-1.95-2.642" transform="translate(-73.037 -212.989)" fill="#3aa"/>
  <path id="Caminho_6" data-name="Caminho 6" d="M117.86,1.2a1.888,1.888,0,0,0,.257,1.9l-.006.012-.692,1.635a5.087,5.087,0,0,0-2.17-.016l-.672-1.66a1.887,1.887,0,1,0-1.684.682l.672,1.66a5.082,5.082,0,0,0-1.548,1.521l-1.647-.7a1.887,1.887,0,1,0-.709,1.673l1.648.7a5.087,5.087,0,0,0-.016,2.17l-1.613.654c-.015.006-.03.013-.045.021a1.883,1.883,0,1,0,.68,1.679l.046-.016,1.614-.653a5.08,5.08,0,0,0,1.52,1.547l-.7,1.648a1.886,1.886,0,1,0,1.673.708l.7-1.648a5.086,5.086,0,0,0,2.169.016l.672,1.66a1.882,1.882,0,1,0,1.683-.683l-.672-1.659a5.084,5.084,0,0,0,1.547-1.521l1.648.7a1.886,1.886,0,1,0,.708-1.673l-1.648-.7a5.082,5.082,0,0,0,.016-2.17l1.575-.638c.028-.011.055-.024.081-.038a1.888,1.888,0,1,0-.677-1.676c-.029.008-.057.018-.085.029l-1.574.638a5.084,5.084,0,0,0-1.521-1.547l.692-1.635,0-.013A1.886,1.886,0,1,0,117.86,1.2" transform="translate(-54.124 20.02)" fill="#3aa"/>
  <rect id="Retângulo_3" data-name="Retângulo 3" width="130.024" height="138.215" transform="translate(19 20.02)" fill="none"/>
</svg>
