<svg id="ISTS_AIDS" data-name="ISTS AIDS" xmlns="http://www.w3.org/2000/svg" width="209.667" height="178.917" viewBox="0 0 209.667 178.917">
  <g id="Grupo_1510" data-name="Grupo 1510" transform="translate(0)">
    <path id="Caminho_632" data-name="Caminho 632" d="M238.754,457.358a5.517,5.517,0,0,1-4.433-1.769,3.55,3.55,0,0,1-.71-3.039c.587-2.69,3.859-4.422,6.787-4.742a28.344,28.344,0,0,0,8.979-2.538,29.852,29.852,0,0,0,8.127-6.277,11.01,11.01,0,0,1,1.363-1.275,9.6,9.6,0,0,0,1.328-1.083c1.035-1.007,1.717-1.052,3.162-1.057h.314c3.049,0,3.71,1.863,3.84,2.434a3.455,3.455,0,0,1-2.065,3.742c-.175.24-.477.79-.726,1.243a21.357,21.357,0,0,1-10.036,9.942,40.991,40.991,0,0,1-7.792,3.035,49.887,49.887,0,0,1-7.116,1.328,9.439,9.439,0,0,1-1.024.057" transform="translate(-181.506 -338.553)" fill="#efb297"/>
    <path id="Caminho_633" data-name="Caminho 633" d="M255.907,430.032c2.256,0,2.022,1.365.592,2.051-1.588.761-2.473,7.169-10.549,11.077a38.681,38.681,0,0,1-7.386,2.886,47.58,47.58,0,0,1-6.793,1.268,7.187,7.187,0,0,1-.782.044c-1.95,0-3.237-.866-2.966-2.106.305-1.4,2.478-2.743,4.854-3a30.637,30.637,0,0,0,9.706-2.747c5.4-2.611,8.93-7.121,9.8-7.735,2.573-1.811,1.211-1.723,3.5-1.735h.027m0-4.455h-.322a5.787,5.787,0,0,0-4.708,1.688,7.418,7.418,0,0,1-1.057.858,12.414,12.414,0,0,0-1.673,1.538,27.875,27.875,0,0,1-7.505,5.83,26.062,26.062,0,0,1-8.251,2.329c-3.605.395-7.872,2.591-8.721,6.482a5.814,5.814,0,0,0,1.151,4.911,7.676,7.676,0,0,0,6.168,2.6,11.641,11.641,0,0,0,1.266-.07,52.156,52.156,0,0,0,7.439-1.388,42.937,42.937,0,0,0,8.2-3.185A23.666,23.666,0,0,0,258.908,436.3c.117-.213.26-.473.379-.681a5.562,5.562,0,0,0,2.631-5.87c-.458-2.015-2.277-4.168-6.011-4.168" transform="translate(-173.74 -330.779)" fill="#d85648"/>
    <path id="Caminho_634" data-name="Caminho 634" d="M148.346,461.382c-3.2,6.734-12.738,8.892-21.295,4.821s-12.9-12.83-9.692-19.564,12.738-8.892,21.295-4.821,12.9,12.83,9.692,19.564" transform="translate(-90.397 -341.803)" fill="#fff"/>
    <path id="Caminho_635" data-name="Caminho 635" d="M128.044,462.753a22.78,22.78,0,0,1-9.75-2.258,21.858,21.858,0,0,1-10.3-9.806,14.342,14.342,0,0,1-.451-12.726c3.726-7.832,14.611-10.468,24.263-5.876s14.473,14.7,10.747,22.533c-2.484,5.222-8.151,8.134-14.512,8.134m-6.057-28.493c-4.65,0-8.692,1.989-10.417,5.616a9.988,9.988,0,0,0,.421,8.835,17.392,17.392,0,0,0,8.217,7.761c7.433,3.537,15.654,1.846,18.326-3.767s-1.2-13.059-8.638-16.6a18.533,18.533,0,0,0-7.909-1.849" transform="translate(-82.597 -334.084)" fill="#f28976"/>
    <path id="Caminho_636" data-name="Caminho 636" d="M587.819,457.358a9.438,9.438,0,0,1-1.024-.057,49.874,49.874,0,0,1-7.116-1.328,40.978,40.978,0,0,1-7.792-3.035A21.359,21.359,0,0,1,561.851,443c-.248-.453-.55-1-.726-1.243a3.455,3.455,0,0,1-2.065-3.742c.13-.571.79-2.434,3.84-2.434h.314c1.445,0,2.127.049,3.162,1.057a9.614,9.614,0,0,0,1.328,1.083,11,11,0,0,1,1.363,1.275,29.848,29.848,0,0,0,8.127,6.277,28.342,28.342,0,0,0,8.979,2.538c2.929.321,6.2,2.052,6.788,4.743a3.551,3.551,0,0,1-.71,3.039,5.516,5.516,0,0,1-4.432,1.769Z" transform="translate(-434.473 -338.553)" fill="#efb297"/>
    <path id="Caminho_637" data-name="Caminho 637" d="M555.131,430.032h.027c2.285.011.923-.076,3.5,1.735.872.614,4.4,5.124,9.8,7.735a30.636,30.636,0,0,0,9.706,2.747c2.376.26,4.549,1.6,4.854,3,.271,1.24-1.017,2.106-2.966,2.106a7.18,7.18,0,0,1-.781-.044,47.587,47.587,0,0,1-6.793-1.268,38.683,38.683,0,0,1-7.386-2.886c-8.076-3.907-8.961-10.315-10.549-11.077-1.431-.686-1.665-2.051.592-2.051m0-4.455c-3.734,0-5.554,2.153-6.012,4.168a5.562,5.562,0,0,0,2.631,5.87c.119.208.262.467.379.681a23.664,23.664,0,0,0,11.018,10.875,42.938,42.938,0,0,0,8.2,3.185,52.154,52.154,0,0,0,7.438,1.388,11.64,11.64,0,0,0,1.266.07,7.676,7.676,0,0,0,6.168-2.6,5.815,5.815,0,0,0,1.151-4.911c-.849-3.89-5.116-6.087-8.722-6.482a26.05,26.05,0,0,1-8.251-2.329,27.87,27.87,0,0,1-7.5-5.829,12.423,12.423,0,0,0-1.674-1.539,7.41,7.41,0,0,1-1.057-.858,5.788,5.788,0,0,0-4.708-1.688h-.322Z" transform="translate(-426.704 -330.779)" fill="#d85648"/>
    <path id="Caminho_638" data-name="Caminho 638" d="M681.592,461.382c3.2,6.734,12.738,8.892,21.295,4.821s12.9-12.83,9.692-19.564-12.738-8.892-21.294-4.821-12.9,12.83-9.692,19.564" transform="translate(-528.947 -341.803)" fill="#fff"/>
    <path id="Caminho_639" data-name="Caminho 639" d="M686.257,462.771a19.547,19.547,0,0,1-4.318-.474,13.8,13.8,0,0,1-9.708-20.4,21.858,21.858,0,0,1,10.3-9.806c9.651-4.592,20.536-1.956,24.263,5.876s-1.095,17.941-10.747,22.533a22.885,22.885,0,0,1-9.785,2.276m6.091-28.511a18.528,18.528,0,0,0-7.909,1.849,17.394,17.394,0,0,0-8.217,7.761,9.368,9.368,0,0,0,6.7,14.082,17.39,17.39,0,0,0,11.206-1.48c7.434-3.537,11.309-10.982,8.638-16.6-1.725-3.627-5.768-5.616-10.417-5.616" transform="translate(-521.145 -334.084)" fill="#f28976"/>
    <path id="Caminho_640" data-name="Caminho 640" d="M195.661,194.534c-20.243-7.938-33.544,1.374-37.847,4.1l-.049.031a6.192,6.192,0,0,1-7.752-.882c-7.786-7.96-21.625-11.514-37.4-11.514S83,189.82,75.211,197.78a6.192,6.192,0,0,1-7.752.882l-.049-.031c-4.3-2.723-17.6-12.035-37.846-4.1-23.7,9.3-25.821,45.254-6.557,57.371.369.232.732.466,1.112.662a11.961,11.961,0,0,0-.561,4.844c.429,5.1,3.777,8.989,7.478,8.678,3.492-.294,6.049-4.22,5.965-8.951a5.854,5.854,0,0,0,4.823-1.9c1.679-1.988,1.576-5.026.02-7.8,4.5-.808,7.77-3.913,7.483-7.319-.311-3.7-4.7-6.352-9.805-5.923-5.021.423-9.85,4.937-10.019,3.983-5.586-8.082-10.655-25.848,11.136-29.784,8.274-1.494,15.239,2.559,18.149,4.448a75.344,75.344,0,0,1,10.435,8.33A34.547,34.547,0,0,0,81.1,240.161,21.852,21.852,0,0,1,88.179,263.7a22,22,0,0,0-.944,6.593,26.124,26.124,0,0,0,4.812,15.172A21.157,21.157,0,0,1,95.837,300a22.079,22.079,0,0,0-.115,2.283c0,12.145,2.954,16.946,7.447,18.839,2.7,1.136,2.245-3.838,9.443-3.838,6.941,0,6.487,5.023,9.117,4.049,4.676-1.731,7.773-6.411,7.773-19.05a22.079,22.079,0,0,0-.115-2.283,21.156,21.156,0,0,1,3.789-14.539,26.125,26.125,0,0,0,4.812-15.172,22,22,0,0,0-.943-6.593,21.852,21.852,0,0,1,7.077-23.535A34.547,34.547,0,0,0,156,221.173a75.313,75.313,0,0,1,10.435-8.33c2.909-1.889,9.875-5.942,18.149-4.448,21.791,3.936,16.722,21.7,11.136,29.784-.169.954-5-3.56-10.019-3.983-5.1-.429-9.494,2.222-9.805,5.923-.286,3.405,2.982,6.511,7.484,7.319-1.556,2.778-1.659,5.817.02,7.8a5.854,5.854,0,0,0,4.823,1.9c-.084,4.731,2.473,8.657,5.965,8.951,3.7.311,7.048-3.574,7.478-8.678a11.964,11.964,0,0,0-.561-4.844c.38-.2.742-.43,1.112-.662,19.264-12.116,17.147-48.075-6.557-57.371" transform="translate(-7.778 -144.775)" fill="#f9cbb7"/>
    <path id="Caminho_641" data-name="Caminho 641" d="M113.312,315.919a4.746,4.746,0,0,1-3.456-1.976,5.614,5.614,0,0,0-5.023-2.2c-3.223,0-4.28,1.1-5.3,2.169-.86.9-2.461,2.567-5.006,1.494-6.092-2.567-8.809-9.01-8.809-20.892A24.4,24.4,0,0,1,85.843,292a18.808,18.808,0,0,0-3.39-13.019,28.271,28.271,0,0,1-5.223-16.462,24.318,24.318,0,0,1,1.045-7.258,19.666,19.666,0,0,0-6.386-21.167,36.772,36.772,0,0,1-12.466-19.528,72.239,72.239,0,0,0-9.629-7.627c-5.686-3.692-11.25-5.079-16.54-4.124-6.99,1.263-11.439,4.082-13.225,8.381-2.087,5.023-.3,11.625,2.6,16.494l.025-.014c1.995-1.186,5.334-3.171,8.9-3.472a13.456,13.456,0,0,1,8.038,1.726,8.2,8.2,0,0,1,4.173,6.23c.317,3.774-2.438,7.312-6.681,8.962a8.233,8.233,0,0,1-1.341,7.786,7.555,7.555,0,0,1-4.408,2.52c-.626,4.989-3.785,8.763-7.895,9.109a8.2,8.2,0,0,1-6.84-3.074,13.459,13.459,0,0,1-3.044-7.637,14.639,14.639,0,0,1,.206-3.983A29.186,29.186,0,0,1,2.722,232.187a39.172,39.172,0,0,1,3.487-35.5,31.509,31.509,0,0,1,14.763-12c8.769-3.439,17.354-4.186,25.519-2.221a43.8,43.8,0,0,1,13.828,6.189l.5.321.053.034a3.94,3.94,0,0,0,4.965-.56c4.027-4.117,9.635-7.253,16.668-9.321a79.629,79.629,0,0,1,22.325-2.863,79.628,79.628,0,0,1,22.325,2.863c7.033,2.068,12.641,5.2,16.668,9.321a3.941,3.941,0,0,0,4.967.558l.041-.026.514-.327a43.8,43.8,0,0,1,13.828-6.188c8.164-1.964,16.75-1.217,25.518,2.221a31.509,31.509,0,0,1,14.763,12,39.172,39.172,0,0,1,3.487,35.5A29.186,29.186,0,0,1,195.9,245.841a14.643,14.643,0,0,1,.206,3.984,13.459,13.459,0,0,1-3.044,7.637,8.2,8.2,0,0,1-6.84,3.074c-4.11-.346-7.268-4.12-7.895-9.109a7.554,7.554,0,0,1-4.408-2.52,8.234,8.234,0,0,1-1.341-7.786c-4.244-1.65-7-5.187-6.681-8.962a8.2,8.2,0,0,1,4.174-6.23,13.456,13.456,0,0,1,8.038-1.726c3.57.3,6.909,2.286,8.9,3.472l.025.014c2.894-4.87,4.682-11.472,2.6-16.494-1.786-4.3-6.235-7.118-13.225-8.381-5.289-.955-10.854.432-16.54,4.124a72.231,72.231,0,0,0-9.629,7.627,36.772,36.772,0,0,1-12.466,19.528,19.666,19.666,0,0,0-6.386,21.167,24.315,24.315,0,0,1,1.045,7.258,28.271,28.271,0,0,1-5.223,16.462A18.808,18.808,0,0,0,123.824,292a24.453,24.453,0,0,1,.126,2.513c0,12.257-2.846,18.776-9.227,21.139a4.051,4.051,0,0,1-1.411.269m-8.479-8.634c5.058,0,7.118,2.313,8.349,3.7.1.113.22.246.326.36,2.864-1.2,5.986-4.369,5.986-16.829a20.06,20.06,0,0,0-.1-2.054,23.512,23.512,0,0,1,4.189-16.058,23.841,23.841,0,0,0,4.4-13.883,19.9,19.9,0,0,0-.842-5.928,24.053,24.053,0,0,1,7.768-25.9,32.214,32.214,0,0,0,11.139-17.755,2.224,2.224,0,0,1,.659-1.16,78.054,78.054,0,0,1,10.741-8.569c8.305-5.393,15.329-5.572,19.758-4.772,8.576,1.549,14.143,5.269,16.547,11.056,3.114,7.5-.1,16.494-3.853,22.01a2.365,2.365,0,0,1-1.107,1.051c-1.3.595-2.394-.056-4.051-1.042-1.773-1.054-4.453-2.647-7-2.861a9.116,9.116,0,0,0-5.362,1.1,3.9,3.9,0,0,0-2.037,2.79c-.182,2.167,2.3,4.337,5.658,4.94a2.228,2.228,0,0,1,1.55,3.281c-1.134,2.024-1.221,4.1-.222,5.279a3.794,3.794,0,0,0,3.041,1.107,2.227,2.227,0,0,1,2.307,2.266c-.062,3.5,1.7,6.5,3.924,6.692a3.9,3.9,0,0,0,3.091-1.543,9.11,9.11,0,0,0,1.98-5.1,9.777,9.777,0,0,0-.45-3.939,2.227,2.227,0,0,1,1.085-2.7c.256-.133.537-.309.834-.5l.116-.073c8.261-5.2,12.892-16.066,11.8-27.694-1.142-12.135-7.865-21.749-17.982-25.717-18.438-7.23-30.7.617-35.319,3.572l-.523.333-.051.032a8.466,8.466,0,0,1-10.534-1.208c-6.841-6.993-19.558-10.844-35.809-10.844s-28.968,3.851-35.809,10.844a8.467,8.467,0,0,1-10.537,1.206l-.052-.033-.519-.331c-4.617-2.955-16.881-10.8-35.319-3.572C12.48,192.8,5.757,202.417,4.615,214.553c-1.095,11.627,3.536,22.5,11.8,27.694l.114.072c.3.187.578.364.835.5a2.228,2.228,0,0,1,1.085,2.7,9.77,9.77,0,0,0-.45,3.938,9.113,9.113,0,0,0,1.98,5.1,3.892,3.892,0,0,0,3.091,1.543c2.226-.187,3.987-3.189,3.925-6.692a2.228,2.228,0,0,1,2.307-2.266,3.8,3.8,0,0,0,3.041-1.107c1-1.183.912-3.255-.222-5.279a2.227,2.227,0,0,1,1.55-3.281c3.355-.6,5.84-2.772,5.657-4.94-.2-2.429-3.593-4.21-7.4-3.89-2.548.215-5.228,1.807-7,2.861-1.657.986-2.752,1.637-4.051,1.042a2.366,2.366,0,0,1-1.107-1.051c-3.749-5.516-6.967-14.513-3.853-22.01,2.4-5.787,7.971-9.507,16.547-11.056,4.429-.8,11.452-.621,19.758,4.772a78.081,78.081,0,0,1,10.741,8.569,2.227,2.227,0,0,1,.659,1.16,32.213,32.213,0,0,0,11.139,17.755,24.053,24.053,0,0,1,7.768,25.9,19.883,19.883,0,0,0-.842,5.928,23.839,23.839,0,0,0,4.4,13.883,23.515,23.515,0,0,1,4.188,16.058,20.006,20.006,0,0,0-.1,2.053c0,12.193,3.042,15.387,5.8,16.663.11-.109.235-.239.34-.348,1.27-1.324,3.395-3.542,8.518-3.542" transform="translate(0 -137.002)" fill="#e56f5c"/>
    <path id="Caminho_642" data-name="Caminho 642" d="M440.319,623.906c-.3-3.395-1.677-5.59-2.267-8.516-.787-4.39,1.771-6.95,2.165-10.974.59-3.658-1.378-6.219-2.165-9.511a8.307,8.307,0,0,1,0-4.39c.591-2.195,1.575-3.658,2.165-5.853a24.4,24.4,0,0,0-.02-3.97l2.654-3.467c0,1.714-2.522,3.1-5.633,3.1a15.442,15.442,0,0,1-2.916-.479,11.844,11.844,0,0,0-5.329-.027,15.3,15.3,0,0,1-2.808.444c-3.111,0-5.633-1.389-5.633-3.1l2.654,3.529a24.4,24.4,0,0,0-.02,3.97c.591,2.2,1.575,3.658,2.165,5.853a8.308,8.308,0,0,1,0,4.39c-.787,3.292-2.755,5.853-2.165,9.511.394,4.024,2.952,6.584,2.165,10.974-.591,2.927-1.968,5.122-2.267,8.516" transform="translate(-326.857 -448.598)" fill="#efb297"/>
    <path id="Caminho_643" data-name="Caminho 643" d="M429.446,569.327a15.083,15.083,0,0,1-3.426-.538,9.668,9.668,0,0,0-4.326-.023,15.034,15.034,0,0,1-3.3.5c-4.481,0-7.86-2.291-7.86-5.33a2.228,2.228,0,0,1,4.451-.127,4.963,4.963,0,0,0,3.409,1,12.33,12.33,0,0,0,2.315-.389,14.146,14.146,0,0,1,6.332.031,12.42,12.42,0,0,0,2.406.42,4.962,4.962,0,0,0,3.409-1,2.228,2.228,0,0,1,4.451.127c0,3.039-3.379,5.33-7.86,5.33" transform="translate(-319.086 -436.586)" fill="#d85648"/>
    <path id="Caminho_644" data-name="Caminho 644" d="M424.105,625.221c-.065,0-.132,0-.2-.009a2.227,2.227,0,0,1-2.023-2.414,22.529,22.529,0,0,1,1.386-5.684,23.59,23.59,0,0,0,.912-3.053c.355-2.017-.2-3.524-.9-5.43A19.408,19.408,0,0,1,422,603.788a13.919,13.919,0,0,1,1.269-7.519,22.184,22.184,0,0,0,.94-2.8c0-.021.01-.041.015-.061a6.06,6.06,0,0,0,0-3.232,18.945,18.945,0,0,0-.978-2.625,22.743,22.743,0,0,1-1.187-3.228c-.016-.061-.03-.123-.041-.185a13.9,13.9,0,0,1-.066-3.135c.022-.42.046-.855.051-1.259a2.228,2.228,0,0,1,4.455.062c-.007.492-.032.971-.057,1.434a12.426,12.426,0,0,0-.01,2.03,19.5,19.5,0,0,0,.949,2.521,22.759,22.759,0,0,1,1.187,3.229,10.541,10.541,0,0,1,.008,5.517,26.064,26.064,0,0,1-1.108,3.331c-.736,1.909-1.317,3.417-1.017,5.276q.011.069.018.138a15.238,15.238,0,0,0,1.04,3.806,13.883,13.883,0,0,1,1.1,7.778l-.009.047a27.244,27.244,0,0,1-1.076,3.659,18.346,18.346,0,0,0-1.156,4.612,2.228,2.228,0,0,1-2.216,2.032" transform="translate(-327.897 -448.9)" fill="#d85648"/>
    <path id="Caminho_645" data-name="Caminho 645" d="M492.649,625.221a2.227,2.227,0,0,1-2.216-2.032,18.355,18.355,0,0,0-1.157-4.612,27.243,27.243,0,0,1-1.076-3.659l-.009-.047a13.882,13.882,0,0,1,1.1-7.778,15.25,15.25,0,0,0,1.04-3.807q.006-.069.018-.138c.3-1.86-.281-3.368-1.017-5.277a26.072,26.072,0,0,1-1.108-3.331,10.544,10.544,0,0,1,.008-5.516,22.761,22.761,0,0,1,1.188-3.228,19.527,19.527,0,0,0,.949-2.521,12.465,12.465,0,0,0-.01-2.03c-.025-.463-.05-.942-.057-1.434a2.227,2.227,0,0,1,4.455-.062c.006.4.029.839.051,1.26a13.894,13.894,0,0,1-.066,3.135c-.011.062-.025.124-.041.185a22.756,22.756,0,0,1-1.188,3.229,18.957,18.957,0,0,0-.978,2.624,6.066,6.066,0,0,0,0,3.233l.015.06a22.16,22.16,0,0,0,.94,2.795,13.924,13.924,0,0,1,1.269,7.52,19.4,19.4,0,0,1-1.287,4.843c-.7,1.906-1.255,3.412-.9,5.43a23.6,23.6,0,0,0,.912,3.052,22.532,22.532,0,0,1,1.386,5.685,2.227,2.227,0,0,1-2.023,2.414c-.066.006-.133.009-.2.009" transform="translate(-379.19 -448.9)" fill="#d85648"/>
    <path id="Caminho_646" data-name="Caminho 646" d="M439.118,773.085a4.747,4.747,0,0,1-3.457-1.976,5.614,5.614,0,0,0-5.022-2.2c-3.223,0-4.28,1.1-5.3,2.17-.86.9-2.461,2.567-5.006,1.494a2.228,2.228,0,0,1,1.429-4.208c.116-.113.25-.253.361-.369,1.27-1.325,3.395-3.542,8.518-3.542,5.058,0,7.118,2.313,8.349,3.7.11.123.243.272.357.392a2.227,2.227,0,0,1,1.184,4.277,4.046,4.046,0,0,1-1.411.269" transform="translate(-325.642 -594.168)" fill="#d85648"/>
  </g>
  <rect id="Retângulo_915" data-name="Retângulo 915" width="209.667" height="178.916" transform="translate(0)" fill="none"/>
  <path id="Caminho_652" data-name="Caminho 652" d="M177.583,636.432a2.807,2.807,0,0,0-2.458,1.455h-2.66a7.556,7.556,0,0,0-1.237-2.979l1.883-1.883a2.8,2.8,0,1,0-1.91-1.91L169.319,633a7.554,7.554,0,0,0-2.979-1.237V629.1a2.8,2.8,0,1,0-2.7,0v2.661A7.554,7.554,0,0,0,160.659,633l-1.83-1.83c-.018-.017-.036-.033-.054-.049a2.8,2.8,0,1,0-1.9,1.9c.016.018.032.037.049.054l1.83,1.83a7.556,7.556,0,0,0-1.237,2.979h-2.661a2.8,2.8,0,1,0,0,2.7h2.661a7.558,7.558,0,0,0,1.237,2.979l-1.883,1.883a2.8,2.8,0,1,0,1.911,1.909l1.882-1.882a7.558,7.558,0,0,0,2.979,1.237v2.661a2.8,2.8,0,1,0,2.7,0v-2.661a7.558,7.558,0,0,0,2.979-1.237l1.786,1.786c.032.031.064.061.1.089a2.817,2.817,0,0,0-.113.791,2.805,2.805,0,1,0,2.015-2.691,1.329,1.329,0,0,0-.09-.1l-1.786-1.786a7.558,7.558,0,0,0,1.237-2.979h2.66a2.8,2.8,0,1,0,2.458-4.154" transform="translate(-116.268 -484.877)" fill="#26a3ac"/>
  <path id="Caminho_653" data-name="Caminho 653" d="M311.439,171.352a2.365,2.365,0,0,0-2.071,1.226h-2.241a6.366,6.366,0,0,0-1.042-2.51l1.587-1.587a2.364,2.364,0,1,0-1.609-1.609l-1.587,1.587a6.365,6.365,0,0,0-2.51-1.042v-2.242a2.363,2.363,0,1,0-2.276,0v2.242a6.367,6.367,0,0,0-2.51,1.042l-1.542-1.542c-.015-.015-.03-.028-.046-.041a2.36,2.36,0,1,0-1.6,1.6c.014.015.026.031.041.046l1.542,1.542a6.363,6.363,0,0,0-1.042,2.51h-2.242a2.363,2.363,0,1,0,0,2.276h2.242a6.363,6.363,0,0,0,1.042,2.51l-1.587,1.587a2.36,2.36,0,1,0,1.61,1.608l1.586-1.586a6.367,6.367,0,0,0,2.51,1.042v2.242a2.363,2.363,0,1,0,2.276,0v-2.242a6.366,6.366,0,0,0,2.51-1.042l1.5,1.5c.027.027.054.051.083.075a2.365,2.365,0,1,0,1.6-1.6,1.108,1.108,0,0,0-.076-.084l-1.5-1.5a6.366,6.366,0,0,0,1.042-2.51h2.241a2.363,2.363,0,1,0,2.071-3.5" transform="translate(-223.732 -124.936)" fill="#26a3ac"/>
  <path id="Caminho_654" data-name="Caminho 654" d="M670.119,14.642a3.263,3.263,0,0,0-2.858,1.692h-3.092a8.785,8.785,0,0,0-1.438-3.463l2.189-2.189a3.261,3.261,0,1,0-2.22-2.22l-2.189,2.189a8.785,8.785,0,0,0-3.464-1.438V6.118a3.261,3.261,0,1,0-3.14,0V9.211a8.786,8.786,0,0,0-3.464,1.438l-2.128-2.128c-.02-.02-.042-.038-.063-.057a3.257,3.257,0,1,0-2.214,2.214c.019.021.037.043.057.063l2.128,2.128a8.786,8.786,0,0,0-1.438,3.463h-3.093a3.261,3.261,0,1,0,0,3.14h3.093a8.785,8.785,0,0,0,1.438,3.464l-2.189,2.189a3.254,3.254,0,1,0,2.222,2.219l2.188-2.188a8.785,8.785,0,0,0,3.464,1.438v3.093a3.261,3.261,0,1,0,3.14,0V26.594a8.785,8.785,0,0,0,3.464-1.438l2.076,2.076c.036.037.075.071.114.1a3.274,3.274,0,0,0-.131.92,3.261,3.261,0,1,0,2.342-3.128c-.033-.04-.067-.078-.1-.116l-2.076-2.076a8.786,8.786,0,0,0,1.438-3.464h3.092a3.26,3.26,0,1,0,2.858-4.83" transform="translate(-500.554 5)" fill="#26a3ac"/>
  <path id="Caminho_655" data-name="Caminho 655" d="M647.121,603.93a1.949,1.949,0,0,0,.265,1.966l-.006.013-.715,1.688a5.249,5.249,0,0,0-2.24-.016l-.694-1.714a1.948,1.948,0,1,0-1.739.7l.694,1.714a5.244,5.244,0,0,0-1.6,1.57l-1.7-.721a1.948,1.948,0,1,0-.732,1.727l1.7.721a5.247,5.247,0,0,0-.016,2.24l-1.666.674-.046.021a1.944,1.944,0,1,0,.7,1.734l.048-.017,1.666-.675a5.25,5.25,0,0,0,1.57,1.6l-.721,1.7a1.948,1.948,0,1,0,1.727.732l.721-1.7a5.247,5.247,0,0,0,2.24.016l.694,1.714a1.943,1.943,0,1,0,1.738-.705l-.694-1.713a5.247,5.247,0,0,0,1.6-1.57l1.7.721a1.948,1.948,0,1,0,.732-1.727l-1.7-.721a5.248,5.248,0,0,0,.016-2.24l1.626-.658c.029-.012.056-.025.083-.039a1.949,1.949,0,1,0-.7-1.73c-.029.009-.059.019-.088.03l-1.626.658a5.247,5.247,0,0,0-1.57-1.6l.715-1.688,0-.013a1.948,1.948,0,1,0-1.991-2.7" transform="translate(-493.902 -468.439)" fill="#26a3ac"/>
  <path id="Caminho_656" data-name="Caminho 656" d="M239.659,24.741a1.949,1.949,0,0,0,.265,1.966l-.006.013-.715,1.688a5.249,5.249,0,0,0-2.24-.016l-.694-1.714a1.948,1.948,0,1,0-1.739.7l.694,1.714a5.244,5.244,0,0,0-1.6,1.57l-1.7-.721a1.948,1.948,0,1,0-.732,1.727l1.7.721a5.246,5.246,0,0,0-.016,2.24l-1.666.674-.046.021a1.944,1.944,0,1,0,.7,1.734l.048-.016,1.666-.675a5.246,5.246,0,0,0,1.57,1.6l-.721,1.7a1.948,1.948,0,1,0,1.727.732l.721-1.7a5.249,5.249,0,0,0,2.24.016l.694,1.714a1.943,1.943,0,1,0,1.738-.705l-.694-1.713a5.247,5.247,0,0,0,1.6-1.57l1.7.721a1.948,1.948,0,1,0,.732-1.727l-1.7-.721a5.249,5.249,0,0,0,.016-2.24l1.626-.658c.029-.012.056-.025.083-.039a1.949,1.949,0,1,0-.7-1.73c-.029.009-.059.019-.088.03l-1.626.658a5.249,5.249,0,0,0-1.57-1.6l.715-1.688,0-.013a1.948,1.948,0,1,0-1.991-2.7" transform="translate(-193.202 -13.266)" fill="#26a3ac"/>
</svg>
